<?xml version="1.0" encoding="UTF-8" standalone="no"?>
<!-- Created with Inkscape (http://www.inkscape.org/) -->

<svg
   xmlns:dc="http://purl.org/dc/elements/1.1/"
   xmlns:cc="http://creativecommons.org/ns#"
   xmlns:rdf="http://www.w3.org/1999/02/22-rdf-syntax-ns#"
   xmlns:svg="http://www.w3.org/2000/svg"
   xmlns="http://www.w3.org/2000/svg"
   xmlns:sodipodi="http://sodipodi.sourceforge.net/DTD/sodipodi-0.dtd"
   xmlns:inkscape="http://www.inkscape.org/namespaces/inkscape"
   width="680"
   height="400"
   viewBox="0 0 179.91667 105.83333"
   version="1.1"
   id="svg8"
   inkscape:version="0.92.1 r15371"
   sodipodi:docname="short-o-matic-logo.svg">
  <defs
     id="defs2" />
  <sodipodi:namedview
     id="base"
     pagecolor="#ffffff"
     bordercolor="#666666"
     borderopacity="1.0"
     inkscape:pageopacity="0.0"
     inkscape:pageshadow="2"
     inkscape:zoom="0.67904827"
     inkscape:cx="313.91223"
     inkscape:cy="140.32021"
     inkscape:document-units="mm"
     inkscape:current-layer="layer6"
     showgrid="false"
     units="px"
     inkscape:snap-text-baseline="false"
     inkscape:window-width="1366"
     inkscape:window-height="705"
     inkscape:window-x="-8"
     inkscape:window-y="-8"
     inkscape:window-maximized="1"
     inkscape:snap-global="false" />
  <metadata
     id="metadata5">
    <rdf:RDF>
      <cc:Work
         rdf:about="">
        <dc:format>image/svg+xml</dc:format>
        <dc:type
           rdf:resource="http://purl.org/dc/dcmitype/StillImage" />
        <dc:title />
      </cc:Work>
    </rdf:RDF>
  </metadata>
  <g
     inkscape:label="Layer 1"
     inkscape:groupmode="layer"
     id="layer1"
     transform="translate(0,-191.16668)"
     style="display:none"
     sodipodi:insensitive="true">
    <rect
       style="fill:#cccccc;stroke:#333333;stroke-width:0.27161679"
       id="rect18"
       width="179.64505"
       height="105.56171"
       x="0.13580839"
       y="191.30251" />
    <g
       id="g4618"
       transform="translate(0.27658862,25.310243)"
       inkscape:export-filename="C:\Users\jisantosf\development\projects\Shortener\linkshortenerparent\graphics\short-o-matic_2.png"
       inkscape:export-xdpi="90"
       inkscape:export-ydpi="90">
      <g
         transform="translate(-0.86757663,37.210416)"
         id="text22"
         style="font-style:normal;font-weight:normal;font-size:10.58333302px;line-height:1.25;font-family:sans-serif;letter-spacing:0px;word-spacing:0px;fill:none;fill-opacity:1;stroke:#0c0000;stroke-width:1.32291663;stroke-miterlimit:4;stroke-dasharray:none;stroke-opacity:1"
         aria-label="short-o-matic">
        <path
           inkscape:connector-curvature="0"
           id="path4526"
           style="font-style:normal;font-variant:normal;font-weight:normal;font-stretch:normal;font-family:'Pleasantly Plump';-inkscape-font-specification:'Pleasantly Plump';fill:none;stroke:#0c0000;stroke-width:1.32291663;stroke-miterlimit:4;stroke-dasharray:none;stroke-opacity:1"
           d="m 40.320544,228.75698 q 0,1.13241 -0.9525,1.94733 -1.068917,0.91016 -2.8575,0.91016 -0.582083,0 -1.195917,-0.10583 -0.60325,-0.11642 -1.153583,-0.32808 -0.47625,-0.16934 -0.98425,-0.61383 -0.677333,-0.60325 -0.677333,-1.18534 0,-0.28575 0.254,-0.45508 0.254,-0.17992 0.73025,-0.17992 0.28575,0 0.772583,0.127 0.486833,0.127 0.85725,0.127 h 0.201083 q 0.201084,0 0.306917,-0.0529 0.105833,-0.0529 0.105833,-0.22225 0,-0.27517 -0.994833,-0.32809 -0.98425,-0.0635 -1.312333,-0.1905 -0.677334,-0.254 -1.026584,-0.9525 -0.254,-0.508 -0.254,-0.97366 0,-1.36525 1.164167,-2.27542 1.090083,-0.84667 2.592917,-0.84667 0.518583,0 1.312333,0.127 0.79375,0.127 1.280583,0.34925 0.5715,0.26459 1.016,0.66675 0.635,0.58209 0.635,1.143 0,0.32809 -0.296333,0.51859 -0.296333,0.1905 -0.709083,0.1905 -0.254,0 -0.804334,-0.15875 -0.550333,-0.15875 -1.121833,-0.32809 -0.15875,0.0529 -0.232833,0.0847 -0.232834,0.11642 -0.232834,0.23283 0,0.29634 0.6985,0.41275 1.100667,0.17992 1.566334,0.381 0.5715,0.24342 0.941916,0.79375 0.370417,0.53975 0.370417,1.18534 z" />
        <path
           inkscape:connector-curvature="0"
           id="path4528"
           style="font-style:normal;font-variant:normal;font-weight:normal;font-stretch:normal;font-family:'Pleasantly Plump';-inkscape-font-specification:'Pleasantly Plump';fill:none;stroke:#0c0000;stroke-width:1.32291663;stroke-miterlimit:4;stroke-dasharray:none;stroke-opacity:1"
           d="m 50.420351,227.45523 q 0,1.72508 -0.423333,2.76225 -0.5715,1.39699 -1.8415,1.39699 -0.529167,0 -1.04775,-0.35983 -0.381,-0.26458 -0.582083,-0.5715 -0.328084,-0.46566 -0.486834,-1.00541 -0.211666,-0.68792 -0.370416,-0.68792 -0.28575,0 -0.370417,0.39158 -0.15875,0.74084 -0.433917,1.21709 -0.211666,0.37041 -0.635,0.66674 -0.497416,0.34925 -1.005416,0.34925 -1.121834,0 -1.778,-1.19591 -0.645584,-1.19592 -0.645584,-3.37608 0,-1.48167 0.455084,-2.51884 0.582083,-1.32291 1.74625,-1.32291 0.550333,0 1.037166,0.30691 0.402167,0.254 0.677334,0.65617 0.359833,0.51858 0.518583,1.16417 0.07408,0.32808 0.41275,0.32808 0.15875,0 0.370417,-0.77258 0.137583,-0.49742 0.381,-0.81492 0.243416,-0.3175 0.60325,-0.55033 0.47625,-0.3175 0.910166,-0.3175 1.344084,0 1.989667,1.40758 0.518583,1.12183 0.518583,2.84692 z" />
        <path
           inkscape:connector-curvature="0"
           id="path4530"
           style="font-style:normal;font-variant:normal;font-weight:normal;font-stretch:normal;font-family:'Pleasantly Plump';-inkscape-font-specification:'Pleasantly Plump';fill:none;stroke:#0c0000;stroke-width:1.32291663;stroke-miterlimit:4;stroke-dasharray:none;stroke-opacity:1"
           d="m 60.349336,227.66689 q 0,1.59809 -1.121833,2.69875 -1.280583,1.25942 -3.52425,1.25942 -1.947333,0 -3.344333,-1.13242 -1.481667,-1.2065 -1.481667,-3.06916 0,-1.74625 1.354667,-2.9845 1.36525,-1.23825 3.386666,-1.23825 1.7145,0 3.07975,1.03716 1.651,1.25942 1.651,3.429 z m -4.011083,-0.0635 q 0,-0.74083 -0.264583,-1.17475 -0.254,-0.43391 -0.5715,-0.43391 -0.423334,0 -0.677334,0.64558 -0.1905,0.48683 -0.1905,0.92075 0,0.68792 0.296334,1.13242 0.254,0.39158 0.560916,0.39158 0.433917,0 0.66675,-0.53975 0.179917,-0.42333 0.179917,-0.94192 z" />
        <path
           inkscape:connector-curvature="0"
           id="path4532"
           style="font-style:normal;font-variant:normal;font-weight:normal;font-stretch:normal;font-family:'Pleasantly Plump';-inkscape-font-specification:'Pleasantly Plump';fill:none;stroke:#0c0000;stroke-width:1.32291663;stroke-miterlimit:4;stroke-dasharray:none;stroke-opacity:1"
           d="m 69.689625,229.95289 q 0,0.83609 -0.529167,1.27 -0.4445,0.35983 -1.153583,0.35983 -1.037167,0 -1.989667,-0.89958 -0.518583,-0.55033 -0.677333,-0.70908 -0.433917,0.55033 -0.85725,1.10066 -0.497417,0.41275 -1.164167,0.41275 -1.143,0 -1.80975,-1.14299 -0.73025,-1.24884 -0.73025,-2.93159 0,-2.46591 0.941917,-3.429 0.804333,-0.8255 2.656416,-0.8255 h 1.481667 q 1.322917,0 2.370667,0.53975 1.291166,0.66675 1.291166,1.8415 0,0.62442 -0.381,1.09009 -0.423333,0.34925 -0.846666,0.68791 0.550333,0.508 0.9525,1.19592 0.4445,0.75142 0.4445,1.43933 z m -4.106334,-3.175 q 0,-0.21166 -0.201083,-0.30691 -0.201083,-0.0952 -0.486833,-0.0952 -0.3175,0 -0.486834,0.11641 -0.127,0.0847 -0.127,0.1905 0,0.15875 0.211667,0.26459 0.211667,0.0953 0.423333,0.0953 0.28575,0 0.47625,-0.0741 0.1905,-0.0741 0.1905,-0.1905 z" />
        <path
           inkscape:connector-curvature="0"
           id="path4534"
           style="font-style:normal;font-variant:normal;font-weight:normal;font-stretch:normal;font-family:'Pleasantly Plump';-inkscape-font-specification:'Pleasantly Plump';fill:none;stroke:#0c0000;stroke-width:1.32291663;stroke-miterlimit:4;stroke-dasharray:none;stroke-opacity:1"
           d="m 78.503061,225.39148 q 0,0.91016 -0.582084,1.38641 -0.804333,0.45509 -1.227666,0.74084 v 0.98425 q 0,1.21708 -0.53975,2.10608 -0.613833,1.00541 -1.629833,1.00541 -1.005417,0 -1.598084,-0.98424 -0.465666,-0.78317 -0.635,-2.08492 -0.0635,-0.41275 -0.07408,-0.60325 -0.01058,-0.20108 -0.02117,-0.33867 -0.85725,-0.32808 -1.439333,-0.84666 -0.635,-0.5715 -0.635,-1.37584 0,-0.86783 1.312333,-1.524 1.312334,-0.66675 2.973917,-0.66675 1.36525,0 2.57175,0.49742 1.524,0.62442 1.524,1.70392 z" />
        <path
           inkscape:connector-curvature="0"
           id="path4536"
           style="font-style:normal;font-variant:normal;font-weight:normal;font-stretch:normal;font-family:'Pleasantly Plump';-inkscape-font-specification:'Pleasantly Plump';fill:none;stroke:#0c0000;stroke-width:1.32291663;stroke-miterlimit:4;stroke-dasharray:none;stroke-opacity:1"
           d="m 85.361392,227.32823 q 0,1.22766 -1.312334,1.651 -0.719666,0.23283 -2.233083,0.23283 -1.30175,0 -2.032,-0.4445 -0.804333,-0.48683 -0.804333,-1.43933 0,-1.00542 0.994833,-1.49225 0.79375,-0.39159 2.06375,-0.39159 h 0.98425 q 0.899583,0 1.61925,0.53975 0.719667,0.52917 0.719667,1.34409 z" />
        <path
           inkscape:connector-curvature="0"
           id="path4538"
           style="font-style:normal;font-variant:normal;font-weight:normal;font-stretch:normal;font-family:'Pleasantly Plump';-inkscape-font-specification:'Pleasantly Plump';fill:none;stroke:#0c0000;stroke-width:1.32291663;stroke-miterlimit:4;stroke-dasharray:none;stroke-opacity:1"
           d="m 95.323944,227.66689 q 0,1.59809 -1.121834,2.69875 -1.280583,1.25942 -3.52425,1.25942 -1.947333,0 -3.344333,-1.13242 -1.481666,-1.2065 -1.481666,-3.06916 0,-1.74625 1.354666,-2.9845 1.36525,-1.23825 3.386667,-1.23825 1.7145,0 3.07975,1.03716 1.651,1.25942 1.651,3.429 z m -4.011084,-0.0635 q 0,-0.74083 -0.264583,-1.17475 -0.254,-0.43391 -0.5715,-0.43391 -0.423333,0 -0.677333,0.64558 -0.1905,0.48683 -0.1905,0.92075 0,0.68792 0.296333,1.13242 0.254,0.39158 0.560917,0.39158 0.433916,0 0.66675,-0.53975 0.179916,-0.42333 0.179916,-0.94192 z" />
        <path
           inkscape:connector-curvature="0"
           id="path4540"
           style="font-style:normal;font-variant:normal;font-weight:normal;font-stretch:normal;font-family:'Pleasantly Plump';-inkscape-font-specification:'Pleasantly Plump';fill:none;stroke:#0c0000;stroke-width:1.32291663;stroke-miterlimit:4;stroke-dasharray:none;stroke-opacity:1"
           d="m 102.16657,227.32823 q 0,1.22766 -1.31234,1.651 -0.71966,0.23283 -2.233079,0.23283 -1.30175,0 -2.032,-0.4445 -0.804333,-0.48683 -0.804333,-1.43933 0,-1.00542 0.994833,-1.49225 0.79375,-0.39159 2.06375,-0.39159 h 0.98425 q 0.899579,0 1.619249,0.53975 0.71967,0.52917 0.71967,1.34409 z" />
        <path
           inkscape:connector-curvature="0"
           id="path4542"
           style="font-style:normal;font-variant:normal;font-weight:normal;font-stretch:normal;font-family:'Pleasantly Plump';-inkscape-font-specification:'Pleasantly Plump';fill:none;stroke:#0c0000;stroke-width:1.32291663;stroke-miterlimit:4;stroke-dasharray:none;stroke-opacity:1"
           d="m 113.5367,227.49756 q 0,0.3175 -0.0212,0.92075 -0.0212,0.59267 -0.0212,0.68792 0,0.9525 -0.64558,1.74624 -0.64559,0.79375 -1.38642,0.79375 -0.42333,0 -0.81492,-0.16933 -0.381,-0.17992 -0.55033,-0.40217 -0.27517,-0.39158 -0.48683,-0.79374 -0.254,-0.48684 -0.33867,-0.48684 -0.0635,0 -0.35983,0.508 -0.29634,0.508 -0.8255,0.508 -0.43392,0 -0.67734,-0.29633 -0.23283,-0.30692 -0.45508,-0.62442 -0.30692,0.59267 -0.60325,1.18533 -0.34925,0.51859 -1.2065,0.51859 -0.75142,0 -1.32292,-0.59267 -0.51858,-0.52916 -0.77258,-1.36525 -0.254,-0.83608 -0.3175,-1.3335 -0.0635,-0.49741 -0.0635,-1.15358 v -0.45508 q 0,-0.15875 -0.0106,-0.30692 0,-0.15875 0,-0.30692 0,-0.0847 0,-0.16933 0.0212,-0.13758 0.0212,-0.21167 0.11642,-1.03716 0.73025,-1.78858 0.61384,-0.75142 1.40759,-0.75142 0.53975,0 1.25941,0.41275 0.60325,0.33867 1.10067,0.8255 0.127,0.11642 0.3175,0.37042 0.29633,0.381 0.46567,0.381 0.0953,0 0.59266,-0.58208 0.34925,-0.40217 0.84667,-0.78317 0.35983,-0.26458 0.64558,-0.40217 0.508,-0.24341 0.99484,-0.24341 1.30175,0 1.98966,1.44991 0.52917,1.11125 0.52917,2.50825 0,0.13759 0,0.26459 -0.0212,0.0952 -0.0212,0.13758 z" />
        <path
           inkscape:connector-curvature="0"
           id="path4544"
           style="font-style:normal;font-variant:normal;font-weight:normal;font-stretch:normal;font-family:'Pleasantly Plump';-inkscape-font-specification:'Pleasantly Plump';fill:none;stroke:#0c0000;stroke-width:1.32291663;stroke-miterlimit:4;stroke-dasharray:none;stroke-opacity:1"
           d="m 123.68893,229.51898 q 0,0.92075 -0.4445,1.47108 -0.4445,0.55033 -1.2065,0.55033 -0.37042,0 -0.80433,-0.17992 -0.43392,-0.1905 -0.67734,-0.45508 -0.33866,-0.381 -0.59266,-0.87841 -0.14817,-0.29634 -0.30692,-0.29634 -1.36525,0 -1.66158,0.127 -0.13759,0.0529 -0.381,0.508 -0.3175,0.58208 -0.84667,0.92075 -0.51858,0.32808 -1.05833,0.32808 -0.73025,0 -1.19592,-0.60325 -0.45508,-0.61383 -0.45508,-1.58749 0,-0.762 0.37041,-1.82034 0.32809,-0.9525 0.84667,-1.80975 0.46567,-0.79375 0.6985,-1.11125 0.47625,-0.64558 1.04775,-0.98425 0.71967,-0.43391 1.61925,-0.43391 1.10067,0 1.87325,0.5715 0.62442,0.46566 1.62983,1.83091 0.56092,0.77259 1.016,1.83092 0.52917,1.21708 0.52917,2.02142 z m -4.37092,-2.97392 q 0,-0.1905 -0.17991,-0.27517 -0.16934,-0.0952 -0.41275,-0.0952 -0.30692,0 -0.47625,0.20109 -0.0529,0.0635 -0.11642,0.21166 0,0.21167 0.23283,0.32809 0.16934,0.0847 0.381,0.0847 0.21167,0 0.39159,-0.13758 0.17991,-0.13758 0.17991,-0.3175 z" />
        <path
           inkscape:connector-curvature="0"
           id="path4546"
           style="font-style:normal;font-variant:normal;font-weight:normal;font-stretch:normal;font-family:'Pleasantly Plump';-inkscape-font-specification:'Pleasantly Plump';fill:none;stroke:#0c0000;stroke-width:1.32291663;stroke-miterlimit:4;stroke-dasharray:none;stroke-opacity:1"
           d="m 132.47392,225.39148 q 0,0.91016 -0.58208,1.38641 -0.80433,0.45509 -1.22767,0.74084 v 0.98425 q 0,1.21708 -0.53975,2.10608 -0.61383,1.00541 -1.62983,1.00541 -1.00542,0 -1.59808,-0.98424 -0.46567,-0.78317 -0.635,-2.08492 -0.0635,-0.41275 -0.0741,-0.60325 -0.0106,-0.20108 -0.0212,-0.33867 -0.85725,-0.32808 -1.43934,-0.84666 -0.635,-0.5715 -0.635,-1.37584 0,-0.86783 1.31234,-1.524 1.31233,-0.66675 2.97391,-0.66675 1.36525,0 2.57175,0.49742 1.524,0.62442 1.524,1.70392 z" />
        <path
           inkscape:connector-curvature="0"
           id="path4548"
           style="font-style:normal;font-variant:normal;font-weight:normal;font-stretch:normal;font-family:'Pleasantly Plump';-inkscape-font-specification:'Pleasantly Plump';fill:none;stroke:#0c0000;stroke-width:1.32291663;stroke-miterlimit:4;stroke-dasharray:none;stroke-opacity:1"
           d="m 137.713,227.41289 q 0,0.96309 -0.15875,1.75684 -0.21166,1.0795 -0.67733,1.71449 -0.56091,0.77259 -1.43933,0.77259 -1.18533,0 -1.85208,-1.2065 -0.58209,-1.05833 -0.58209,-2.59292 v -1.35466 q 0,-1.22767 0.59267,-2.20134 0.65617,-1.0795 1.64042,-1.0795 1.32291,0 1.97908,1.49225 0.49741,1.13242 0.49741,2.69875 z" />
        <path
           inkscape:connector-curvature="0"
           id="path4550"
           style="font-style:normal;font-variant:normal;font-weight:normal;font-stretch:normal;font-family:'Pleasantly Plump';-inkscape-font-specification:'Pleasantly Plump';fill:none;stroke:#0c0000;stroke-width:1.32291663;stroke-miterlimit:4;stroke-dasharray:none;stroke-opacity:1"
           d="m 146.95325,229.19089 q 0,0.99484 -1.13242,1.73567 -1.13241,0.74083 -2.794,0.74083 -0.889,0 -1.8415,-0.34925 -1.27,-0.46567 -2.032,-1.38641 -0.96308,-1.16417 -0.96308,-2.921 0,-0.6985 0.42333,-1.49225 0.51859,-0.96309 1.4605,-1.55575 1.16417,-0.73025 2.77284,-0.73025 0.84666,0 1.7145,0.21166 0.74083,0.17992 1.24883,0.508 0.32808,0.21167 0.6985,0.67734 0.4445,0.56091 0.4445,0.9525 0,0.51858 -0.42333,0.89958 -0.46567,0.42333 -1.24884,0.42333 -0.35983,0 -0.79375,-0.13758 -1.02658,-0.32808 -1.31233,-0.32808 -0.381,0 -0.70908,0.27516 -0.3175,0.27517 -0.3175,0.60325 0,0.381 0.33866,0.66675 0.33867,0.27517 0.93134,0.27517 0.39158,0 0.80433,-0.14817 0.9525,-0.33866 1.22767,-0.33866 0.66675,0 1.11125,0.48683 0.39158,0.43392 0.39158,0.93133 z" />
      </g>
      <text
         id="text12"
         y="268.95203"
         x="30.832907"
         style="font-style:normal;font-weight:normal;font-size:10.58333302px;line-height:1.25;font-family:sans-serif;letter-spacing:0px;word-spacing:0px;fill:#ffffff;fill-opacity:1;stroke:none;stroke-width:0.26458332"
         xml:space="preserve"><tspan
           style="font-style:normal;font-variant:normal;font-weight:normal;font-stretch:normal;font-family:'Pleasantly Plump';-inkscape-font-specification:'Pleasantly Plump';fill:#ffffff;stroke-width:0.26458332"
           y="268.95203"
           x="30.832907"
           id="tspan10"
           sodipodi:role="line">short-o-matic</tspan></text>
    </g>
    <rect
       inkscape:export-filename="/home/jisantosf/development/projects/CowboysVsNinjas/graphics/sprites/cowboy/standing_2.png"
       style="display:inline;opacity:1;fill:none;fill-opacity:1;fill-rule:nonzero;stroke:none;stroke-width:0.32227349;stroke-linecap:round;stroke-linejoin:round;stroke-miterlimit:4;stroke-dasharray:none;stroke-opacity:1;enable-background:new"
       id="rect6228"
       width="52.422619"
       height="52.480999"
       x="-51.62608"
       y="197.7991"
       inkscape:export-xdpi="90"
       inkscape:export-ydpi="90"
       transform="scale(-1,1)" />
  </g>
  <g
     inkscape:groupmode="layer"
     id="layer2"
     inkscape:label="character"
     style="display:none"
     sodipodi:insensitive="true" />
  <g
     inkscape:groupmode="layer"
     id="layer3"
     inkscape:label="hands pressing"
     style="display:inline"
     sodipodi:insensitive="true">
    <path
       style="fill:#ffffff;fill-opacity:1;stroke:#000000;stroke-width:0.81960094;stroke-linecap:butt;stroke-linejoin:miter;stroke-miterlimit:4;stroke-dasharray:none;stroke-opacity:1"
       d="m 86.508479,44.291015 1.496664,-6.801388 c 0.965589,-0.262939 1.849524,-0.787527 3.848573,-0.123654 l 1.603569,6.925047 z"
       id="path4612"
       inkscape:connector-curvature="0"
       sodipodi:nodetypes="ccccc" />
    <path
       inkscape:connector-curvature="0"
       id="path4618"
       d="m 83.670375,46.372972 13.592035,0.09995 -2.412471,-2.516137 -9.581643,0.534984 z"
       style="fill:#ffffff;fill-opacity:1;stroke:#000000;stroke-width:1.06258917;stroke-linecap:butt;stroke-linejoin:miter;stroke-miterlimit:4;stroke-dasharray:none;stroke-opacity:1"
       sodipodi:nodetypes="ccccc" />
    <path
       style="fill:#ffffff;fill-opacity:1;stroke:#000000;stroke-width:0.62744826;stroke-linecap:butt;stroke-linejoin:miter;stroke-miterlimit:4;stroke-dasharray:none;stroke-opacity:1"
       d="m 87.842505,51.596396 -0.01656,1.662162 5.029989,-0.07155 0.01744,-1.795133 z"
       id="path4568"
       inkscape:connector-curvature="0" />
    <path
       style="fill:#ffffff;fill-opacity:1;stroke:#000000;stroke-width:1.06258917;stroke-linecap:butt;stroke-linejoin:miter;stroke-miterlimit:4;stroke-dasharray:none;stroke-opacity:1"
       d="m 83.670375,50.470813 13.592035,-0.09995 -0.991874,1.867415 -11.391824,0.979098 z"
       id="path4578"
       inkscape:connector-curvature="0"
       sodipodi:nodetypes="ccccc" />
    <ellipse
       style="fill:#ffffff;fill-opacity:1;stroke:#0a0000;stroke-width:1.49958968;stroke-miterlimit:4;stroke-dasharray:none;stroke-opacity:1"
       id="path4580"
       cx="69.901161"
       cy="47.511784"
       rx="3.6428988"
       ry="4.253592"
       transform="matrix(0.99992211,0.01248085,-0.00969167,0.99995303,0,0)" />
    <ellipse
       ry="4.5785689"
       rx="4.106626"
       cy="46.38905"
       cx="111.52318"
       id="ellipse4582"
       style="fill:#ffffff;fill-opacity:1;stroke:#0a0000;stroke-width:1.03404713;stroke-miterlimit:4;stroke-dasharray:none;stroke-opacity:1"
       transform="matrix(0.99992899,0.01191729,-0.01014999,0.99994849,0,0)" />
    <path
       style="fill:#ffffff;fill-opacity:1;stroke:#000000;stroke-width:0.83581877;stroke-linecap:butt;stroke-linejoin:miter;stroke-miterlimit:4;stroke-dasharray:none;stroke-opacity:1"
       d="m 87.549892,53.947209 -1.823137,1.926202 1.377233,1.480324 5.939672,-1.015421 1.122882,-1.609161 -1.298339,-1.540976 z"
       id="path4562"
       inkscape:connector-curvature="0"
       sodipodi:nodetypes="ccccccc" />
    <path
       style="fill:none;stroke:#000000;stroke-width:0.40980041px;stroke-linecap:butt;stroke-linejoin:miter;stroke-opacity:1"
       d="m 85.739462,55.874158 1.790967,-0.266094 1.199669,-0.178241 5.354301,-0.795517"
       id="path4558"
       inkscape:connector-curvature="0"
       sodipodi:nodetypes="cccc" />
    <path
       sodipodi:nodetypes="ccccccc"
       inkscape:connector-curvature="0"
       id="path4564"
       d="m 87.746961,57.708517 -1.823137,1.926202 1.377233,1.480324 5.939672,-1.015421 1.122882,-1.609161 -1.298339,-1.540976 z"
       style="fill:#ffffff;fill-opacity:1;stroke:#000000;stroke-width:0.86227709;stroke-linecap:butt;stroke-linejoin:miter;stroke-miterlimit:4;stroke-dasharray:none;stroke-opacity:1" />
    <path
       sodipodi:nodetypes="cc"
       inkscape:connector-curvature="0"
       id="path4566"
       d="m 85.936531,59.635466 8.344937,-1.239852"
       style="fill:none;stroke:#000000;stroke-width:0.40980041px;stroke-linecap:butt;stroke-linejoin:miter;stroke-opacity:1" />
    <path
       style="fill:#ffffff;fill-opacity:1;stroke:#000000;stroke-width:0.80936044;stroke-linecap:butt;stroke-linejoin:miter;stroke-miterlimit:4;stroke-dasharray:none;stroke-opacity:1"
       d="m 87.746961,61.697784 -1.823137,1.926202 1.377233,1.480324 5.939672,-1.015421 1.122882,-1.609161 -1.298339,-1.540976 z"
       id="path4570"
       inkscape:connector-curvature="0"
       sodipodi:nodetypes="ccccccc" />
    <path
       style="fill:none;stroke:#000000;stroke-width:0.40980041px;stroke-linecap:butt;stroke-linejoin:miter;stroke-opacity:1"
       d="m 85.936531,63.624733 8.344937,-1.239852"
       id="path4572"
       inkscape:connector-curvature="0"
       sodipodi:nodetypes="cc" />
    <g
       id="g4867"
       transform="matrix(0.15088115,1.1762838,1.1762838,-0.15088115,-14.840429,-49.135262)">
      <path
         sodipodi:nodetypes="ccscscccccc"
         inkscape:connector-curvature="0"
         id="path4726"
         d="m 78.506772,29.346524 c -0.832286,6.091988 0.324029,8.890386 0.751645,16.091834 1.261982,5.384672 2.114781,17.463613 2.520217,18.978099 0.272646,1.018464 0.716288,2.252511 3.427064,1.926707 5.796042,-0.256714 10.723415,0.802375 12.400536,-0.864214 0.903998,-0.898316 -0.180505,-4.474245 -0.180505,-4.474245 3.121181,1.362362 4.376881,-2.696101 3.311241,-4.192415 -1.525128,-1.508268 -3.144684,-3.092559 -5.216852,-6.267183 -0.03217,-2.779266 -3.036078,-4.864883 -4.295456,-6.729866 -1.138287,-2.52991 0.155605,-12.414687 1.023583,-14.241287 z"
         style="fill:#ffffff;fill-opacity:1;stroke:#000000;stroke-width:0.91625208;stroke-linecap:butt;stroke-linejoin:miter;stroke-miterlimit:4;stroke-dasharray:none;stroke-opacity:1" />
      <path
         sodipodi:nodetypes="cccccccccc"
         inkscape:connector-curvature="0"
         id="path4728"
         d="m 85.437922,64.40285 c 0.800665,-0.208436 1.696369,-0.288336 3.909421,-4.154372 0.110787,1.033768 0.502979,2.328605 -0.321944,3.230278 1.042338,-0.458854 1.082645,-1.870422 1.041712,-2.712057 -0.117279,-0.757962 -0.309354,-0.800588 -0.174191,-1.595769 0.209869,-0.704743 0.962542,-1.205969 1.833814,-1.753482 -0.840084,0.02687 -1.372097,0.03987 -2.064843,0.454449 -1.403333,1.052018 -1.091315,1.395674 -3.094447,3.34826 0.966369,-0.198995 1.521953,-0.968755 2.314343,-1.755992 -0.356812,0.667235 -1.906527,4.539262 -3.443865,4.938685 z"
         style="fill:#000000;fill-opacity:0.97461925;stroke:#000000;stroke-width:0.07747529;stroke-linecap:butt;stroke-linejoin:miter;stroke-miterlimit:4;stroke-dasharray:none;stroke-opacity:1" />
      <path
         sodipodi:nodetypes="ccscccccccc"
         inkscape:connector-curvature="0"
         id="path4730"
         d="m 90.125965,60.59736 c 0.441236,0.166466 0.523645,0.04366 2.310614,1.294862 0.205294,0.61522 1.548568,2.412606 1.454978,2.240728 -0.108692,-0.199706 -1.033486,-2.682077 -0.906117,-2.629601 l 2.36299,0.324229 C 94.712924,61.460564 94.014244,61.13762 92.939189,61.077351 91.368152,59.058056 91.19449,58.19203 91.717048,57.540028 l -0.608189,0.316421 c -0.576801,0.854199 0.298834,2.303753 1.233016,3.205727 -0.03196,-0.346611 -2.337001,-1.029952 -2.352185,-0.87761 z"
         style="fill:#000000;fill-opacity:1;stroke:#000000;stroke-width:0.11621293;stroke-linecap:butt;stroke-linejoin:miter;stroke-miterlimit:4;stroke-dasharray:none;stroke-opacity:1" />
      <path
         sodipodi:nodetypes="cscccsccc"
         inkscape:connector-curvature="0"
         id="path4732"
         d="m 87.56484,57.866039 c 1.271371,-0.645626 2.941319,-0.990547 3.920518,-0.584557 1.516636,0.62882 5.734511,3.820397 5.785953,3.807956 l 0.325574,-0.133535 C 96.503277,59.6917 95.263081,59.24135 93.997056,58.38744 c 0,0 -1.479052,-1.276379 -2.072469,-1.579415 -0.960199,-0.490338 -1.950035,-0.96898 -2.998836,-0.78217 0.411381,0.169126 0.692343,0.145733 1.247048,0.526419 -1.44662,0.140995 -1.912082,0.421191 -2.607959,1.313765 z"
         style="fill:#000000;fill-opacity:1;stroke:#000000;stroke-width:0.11621293;stroke-linecap:butt;stroke-linejoin:miter;stroke-miterlimit:4;stroke-dasharray:none;stroke-opacity:1" />
      <path
         sodipodi:nodetypes="cccccccscc"
         inkscape:connector-curvature="0"
         id="path4734"
         d="M 92.416279,45.563652 C 91.534892,44.369934 86.942913,41.9565 86.634018,41.940248 l 0.676447,0.116561 c -1.443555,-2.398158 -1.315401,-4.661624 -1.002035,-7.069745 0.32522,2.753541 0.633966,5.367518 2.005147,7.495928 0.495571,0.326076 0.969982,0.558567 1.36702,0.448947 -1.013062,-4.135078 -0.318415,-7.298713 0.171819,-10.107171 -0.118031,-0.07649 -0.138654,8.901614 0.413853,8.668806 0.655302,-0.276119 1.54186,-8.669155 1.493742,-8.576978 0.09961,4.244971 -2.580862,9.173362 0.656268,12.647056 z"
         style="fill:#000000;fill-opacity:1;stroke:#000000;stroke-width:0.11621293;stroke-linecap:butt;stroke-linejoin:miter;stroke-miterlimit:4;stroke-dasharray:none;stroke-opacity:1" />
      <path
         sodipodi:nodetypes="cccc"
         inkscape:connector-curvature="0"
         id="path4736"
         d="m 82.872442,41.595253 c 0.605336,1.058301 2.583419,4.225021 3.992585,2.119894 0,0 -0.384383,0.613915 -1.104158,1.232222 -1.034049,0.641123 -2.852586,-1.932482 -2.888427,-3.352116 z"
         style="fill:#000000;fill-opacity:1;stroke:#000000;stroke-width:0.11621293;stroke-linecap:butt;stroke-linejoin:miter;stroke-miterlimit:4;stroke-dasharray:none;stroke-opacity:1" />
      <path
         sodipodi:nodetypes="cscac"
         inkscape:connector-curvature="0"
         id="path4738"
         d="m 90.51821,52.406411 c 0.618068,-0.829055 0.949585,-1.486522 1.504433,-1.780012 0.22,-0.116367 0.573757,-0.08536 2.90772,0.212565 0,0 -2.206989,-1.259558 -3.210305,-0.80146 -0.80545,0.367766 -1.201848,2.368907 -1.201848,2.368907 z"
         style="fill:#000000;fill-opacity:1;stroke:#000000;stroke-width:0.07747529;stroke-linecap:butt;stroke-linejoin:miter;stroke-miterlimit:4;stroke-dasharray:none;stroke-opacity:1" />
      <path
         sodipodi:nodetypes="cscc"
         inkscape:connector-curvature="0"
         id="path4740"
         d="m 97.048599,60.315784 c 0.703551,-0.52166 1.307717,-0.109023 3.093281,-3.339758 0.2969,-0.537225 -1.128669,3.732145 -3.09328,3.339755 z"
         style="fill:#000000;fill-opacity:1;stroke:#000000;stroke-width:0.15495057;stroke-linecap:butt;stroke-linejoin:miter;stroke-miterlimit:4;stroke-dasharray:none;stroke-opacity:1" />
      <path
         sodipodi:nodetypes="ccc"
         inkscape:connector-curvature="0"
         id="path4742"
         d="m 97.67102,59.187803 c 0.573068,-0.289702 1.761921,-0.750014 1.744801,-2.886138 -0.486153,1.682279 -1.114062,2.294879 -1.744801,2.886138 z"
         style="fill:#000000;fill-opacity:1;stroke:#000000;stroke-width:0.11621293;stroke-linecap:butt;stroke-linejoin:miter;stroke-miterlimit:4;stroke-dasharray:none;stroke-opacity:1" />
      <path
         sodipodi:nodetypes="cscccccc"
         inkscape:connector-curvature="0"
         id="path4744"
         d="m 97.493806,60.259489 c 0,0 -0.09874,-0.106171 0.161637,0.05587 0.08078,0.05022 0.764074,0.705827 0.807307,0.675661 2.0702,-0.475718 2.39788,-2.381712 2.19938,-2.573687 -0.10228,-0.250766 -0.50196,-0.568121 -0.663979,-0.8919 l 1.002949,0.658539 c 0.45405,2.134268 -2.684292,3.468564 -2.777618,2.873302 -0.153948,-0.161066 -0.729676,-0.797779 -0.729676,-0.797779 z"
         style="fill:#000000;fill-opacity:1;stroke:#000000;stroke-width:0.03873764;stroke-linecap:butt;stroke-linejoin:miter;stroke-miterlimit:4;stroke-dasharray:none;stroke-opacity:1" />
      <path
         sodipodi:nodetypes="ccc"
         inkscape:connector-curvature="0"
         id="path4746"
         d="m 97.7714,57.004005 c 0,0 0.836111,-0.08769 0.877619,-1.618623 -0.20343,0.646034 -0.937148,1.613295 -0.877619,1.618623 z"
         style="fill:#000000;fill-opacity:1;stroke:#000000;stroke-width:0.15495057;stroke-linecap:butt;stroke-linejoin:miter;stroke-miterlimit:4;stroke-dasharray:none;stroke-opacity:1" />
    </g>
    <g
       transform="matrix(-0.14610051,1.1768871,-1.1768871,-0.14610051,193.20824,-48.769085)"
       id="g4891">
      <path
         style="fill:#ffffff;fill-opacity:1;stroke:#000000;stroke-width:0.91625208;stroke-linecap:butt;stroke-linejoin:miter;stroke-miterlimit:4;stroke-dasharray:none;stroke-opacity:1"
         d="m 78.506772,29.346524 c -0.832286,6.091988 0.324029,8.890386 0.751645,16.091834 1.261982,5.384672 2.114781,17.463613 2.520217,18.978099 0.272646,1.018464 0.716288,2.252511 3.427064,1.926707 5.796042,-0.256714 10.723415,0.802375 12.400536,-0.864214 0.903998,-0.898316 -0.180505,-4.474245 -0.180505,-4.474245 3.121181,1.362362 4.376881,-2.696101 3.311241,-4.192415 -1.525128,-1.508268 -3.144684,-3.092559 -5.216852,-6.267183 -0.03217,-2.779266 -3.036078,-4.864883 -4.295456,-6.729866 -1.138287,-2.52991 0.155605,-12.414687 1.023583,-14.241287 z"
         id="path4869"
         inkscape:connector-curvature="0"
         sodipodi:nodetypes="ccscscccccc" />
      <path
         style="fill:#000000;fill-opacity:0.97461925;stroke:#000000;stroke-width:0.07747529;stroke-linecap:butt;stroke-linejoin:miter;stroke-miterlimit:4;stroke-dasharray:none;stroke-opacity:1"
         d="m 85.437922,64.40285 c 0.800665,-0.208436 1.696369,-0.288336 3.909421,-4.154372 0.110787,1.033768 0.502979,2.328605 -0.321944,3.230278 1.042338,-0.458854 1.082645,-1.870422 1.041712,-2.712057 -0.117279,-0.757962 -0.309354,-0.800588 -0.174191,-1.595769 0.209869,-0.704743 0.962542,-1.205969 1.833814,-1.753482 -0.840084,0.02687 -1.372097,0.03987 -2.064843,0.454449 -1.403333,1.052018 -1.091315,1.395674 -3.094447,3.34826 0.966369,-0.198995 1.521953,-0.968755 2.314343,-1.755992 -0.356812,0.667235 -1.906527,4.539262 -3.443865,4.938685 z"
         id="path4871"
         inkscape:connector-curvature="0"
         sodipodi:nodetypes="cccccccccc" />
      <path
         style="fill:#000000;fill-opacity:1;stroke:#000000;stroke-width:0.11621293;stroke-linecap:butt;stroke-linejoin:miter;stroke-miterlimit:4;stroke-dasharray:none;stroke-opacity:1"
         d="m 90.125965,60.59736 c 0.441236,0.166466 0.523645,0.04366 2.310614,1.294862 0.205294,0.61522 1.548568,2.412606 1.454978,2.240728 -0.108692,-0.199706 -1.033486,-2.682077 -0.906117,-2.629601 l 2.36299,0.324229 C 94.712924,61.460564 94.014244,61.13762 92.939189,61.077351 91.368152,59.058056 91.19449,58.19203 91.717048,57.540028 l -0.608189,0.316421 c -0.576801,0.854199 0.298834,2.303753 1.233016,3.205727 -0.03196,-0.346611 -2.337001,-1.029952 -2.352185,-0.87761 z"
         id="path4873"
         inkscape:connector-curvature="0"
         sodipodi:nodetypes="ccscccccccc" />
      <path
         style="fill:#000000;fill-opacity:1;stroke:#000000;stroke-width:0.11621293;stroke-linecap:butt;stroke-linejoin:miter;stroke-miterlimit:4;stroke-dasharray:none;stroke-opacity:1"
         d="m 87.56484,57.866039 c 1.271371,-0.645626 2.941319,-0.990547 3.920518,-0.584557 1.516636,0.62882 5.734511,3.820397 5.785953,3.807956 l 0.325574,-0.133535 C 96.503277,59.6917 95.263081,59.24135 93.997056,58.38744 c 0,0 -1.479052,-1.276379 -2.072469,-1.579415 -0.960199,-0.490338 -1.950035,-0.96898 -2.998836,-0.78217 0.411381,0.169126 0.692343,0.145733 1.247048,0.526419 -1.44662,0.140995 -1.912082,0.421191 -2.607959,1.313765 z"
         id="path4875"
         inkscape:connector-curvature="0"
         sodipodi:nodetypes="cscccsccc" />
      <path
         style="fill:#000000;fill-opacity:1;stroke:#000000;stroke-width:0.11621293;stroke-linecap:butt;stroke-linejoin:miter;stroke-miterlimit:4;stroke-dasharray:none;stroke-opacity:1"
         d="M 92.416279,45.563652 C 91.534892,44.369934 86.942913,41.9565 86.634018,41.940248 l 0.676447,0.116561 c -1.443555,-2.398158 -1.315401,-4.661624 -1.002035,-7.069745 0.32522,2.753541 0.633966,5.367518 2.005147,7.495928 0.495571,0.326076 0.969982,0.558567 1.36702,0.448947 -1.013062,-4.135078 -0.318415,-7.298713 0.171819,-10.107171 -0.118031,-0.07649 -0.138654,8.901614 0.413853,8.668806 0.655302,-0.276119 1.54186,-8.669155 1.493742,-8.576978 0.09961,4.244971 -2.580862,9.173362 0.656268,12.647056 z"
         id="path4877"
         inkscape:connector-curvature="0"
         sodipodi:nodetypes="cccccccscc" />
      <path
         style="fill:#000000;fill-opacity:1;stroke:#000000;stroke-width:0.11621293;stroke-linecap:butt;stroke-linejoin:miter;stroke-miterlimit:4;stroke-dasharray:none;stroke-opacity:1"
         d="m 82.872442,41.595253 c 0.605336,1.058301 2.583419,4.225021 3.992585,2.119894 0,0 -0.384383,0.613915 -1.104158,1.232222 -1.034049,0.641123 -2.852586,-1.932482 -2.888427,-3.352116 z"
         id="path4879"
         inkscape:connector-curvature="0"
         sodipodi:nodetypes="cccc" />
      <path
         style="fill:#000000;fill-opacity:1;stroke:#000000;stroke-width:0.07747529;stroke-linecap:butt;stroke-linejoin:miter;stroke-miterlimit:4;stroke-dasharray:none;stroke-opacity:1"
         d="m 90.51821,52.406411 c 0.618068,-0.829055 0.949585,-1.486522 1.504433,-1.780012 0.22,-0.116367 0.573757,-0.08536 2.90772,0.212565 0,0 -2.206989,-1.259558 -3.210305,-0.80146 -0.80545,0.367766 -1.201848,2.368907 -1.201848,2.368907 z"
         id="path4881"
         inkscape:connector-curvature="0"
         sodipodi:nodetypes="cscac" />
      <path
         style="fill:#000000;fill-opacity:1;stroke:#000000;stroke-width:0.15495057;stroke-linecap:butt;stroke-linejoin:miter;stroke-miterlimit:4;stroke-dasharray:none;stroke-opacity:1"
         d="m 97.048599,60.315784 c 0.703551,-0.52166 1.307717,-0.109023 3.093281,-3.339758 0.2969,-0.537225 -1.128669,3.732145 -3.09328,3.339755 z"
         id="path4883"
         inkscape:connector-curvature="0"
         sodipodi:nodetypes="cscc" />
      <path
         style="fill:#000000;fill-opacity:1;stroke:#000000;stroke-width:0.11621293;stroke-linecap:butt;stroke-linejoin:miter;stroke-miterlimit:4;stroke-dasharray:none;stroke-opacity:1"
         d="m 97.67102,59.187803 c 0.573068,-0.289702 1.761921,-0.750014 1.744801,-2.886138 -0.486153,1.682279 -1.114062,2.294879 -1.744801,2.886138 z"
         id="path4885"
         inkscape:connector-curvature="0"
         sodipodi:nodetypes="ccc" />
      <path
         style="fill:#000000;fill-opacity:1;stroke:#000000;stroke-width:0.03873764;stroke-linecap:butt;stroke-linejoin:miter;stroke-miterlimit:4;stroke-dasharray:none;stroke-opacity:1"
         d="m 97.493806,60.259489 c 0,0 -0.09874,-0.106171 0.161637,0.05587 0.08078,0.05022 0.764074,0.705827 0.807307,0.675661 2.0702,-0.475718 2.39788,-2.381712 2.19938,-2.573687 -0.10228,-0.250766 -0.50196,-0.568121 -0.663979,-0.8919 l 1.002949,0.658539 c 0.45405,2.134268 -2.684292,3.468564 -2.777618,2.873302 -0.153948,-0.161066 -0.729676,-0.797779 -0.729676,-0.797779 z"
         id="path4887"
         inkscape:connector-curvature="0"
         sodipodi:nodetypes="cscccccc" />
      <path
         style="fill:#000000;fill-opacity:1;stroke:#000000;stroke-width:0.15495057;stroke-linecap:butt;stroke-linejoin:miter;stroke-miterlimit:4;stroke-dasharray:none;stroke-opacity:1"
         d="m 97.7714,57.004005 c 0,0 0.836111,-0.08769 0.877619,-1.618623 -0.20343,0.646034 -0.937148,1.613295 -0.877619,1.618623 z"
         id="path4889"
         inkscape:connector-curvature="0"
         sodipodi:nodetypes="ccc" />
    </g>
    <path
       style="fill:#ffffff;fill-opacity:1;stroke:#000000;stroke-width:1.06258917;stroke-linecap:butt;stroke-linejoin:miter;stroke-miterlimit:4;stroke-dasharray:none;stroke-opacity:1"
       d="m 66.507704,49.673462 45.515646,0.0063 -1.93344,-2.715585 -42.586125,0.286137 c -2.253049,1.287971 -0.703333,1.62525 -0.996081,2.423145 z"
       id="path4576"
       inkscape:connector-curvature="0"
       sodipodi:nodetypes="ccccc" />
    <path
       style="fill:none;stroke:#000000;stroke-width:0.26458332px;stroke-linecap:butt;stroke-linejoin:miter;stroke-opacity:1"
       d="m 88.700477,37.447823 c -0.122214,1.473168 -0.70947,5.969563 -0.618967,6.306062"
       id="path4989"
       inkscape:connector-curvature="0"
       sodipodi:nodetypes="cc" />
    <path
       sodipodi:nodetypes="cccc"
       inkscape:connector-curvature="0"
       id="path4991"
       d="m 91.074341,37.460494 c 0.06298,0.535241 0.128915,0.753036 0.235993,1.746356 m 0.14986,0.842961 c 0.103524,0.960348 0.499525,3.476089 0.449397,3.691757"
       style="fill:none;stroke:#000000;stroke-width:0.16500001;stroke-linecap:butt;stroke-linejoin:miter;stroke-miterlimit:4;stroke-dasharray:none;stroke-opacity:1" />
  </g>
  <g
     inkscape:groupmode="layer"
     id="layer4"
     inkscape:label="short-o-matic text"
     sodipodi:insensitive="true"
     style="display:inline">
    <g
       id="g4600"
       transform="translate(0.74633783,-152.82091)"
       inkscape:export-filename="C:\Users\jisantosf\development\projects\Shortener\linkshortenerparent\graphics\short-o-matic.png"
       inkscape:export-xdpi="90"
       inkscape:export-ydpi="90">
      <g
         transform="translate(0.55530413,-11.49539)"
         id="text4555"
         style="font-style:normal;font-variant:normal;font-weight:normal;font-stretch:normal;font-size:10.58333302px;line-height:1.25;font-family:Vanilla;-inkscape-font-specification:Vanilla;letter-spacing:0px;word-spacing:0px;fill:none;fill-opacity:1;stroke:#0a0000;stroke-width:1.32291663;stroke-miterlimit:4;stroke-dasharray:none;stroke-opacity:1"
         aria-label="short-o-matic">
        <path
           inkscape:connector-curvature="0"
           id="path4557"
           style="font-style:normal;font-variant:normal;font-weight:normal;font-stretch:normal;font-family:Vanilla;-inkscape-font-specification:Vanilla;fill:none;stroke:#0a0000;stroke-width:1.32291663;stroke-miterlimit:4;stroke-dasharray:none;stroke-opacity:1"
           d="m 41.855369,229.11335 q -0.60325,0.35984 -0.98425,1.27 -0.296333,0.71967 -0.296333,1.44992 0,1.17475 0.677333,1.83092 0.529167,0.51858 1.989667,0.56091 1.227667,0.0423 1.397,0.0635 0.98425,0.14817 1.026583,0.6985 0.03175,0.381 -0.381,0.67734 -0.34925,0.254 -0.772583,0.3175 -0.296333,0.0529 -0.529167,0 -1.227666,-0.254 -1.87325,-0.254 -0.41275,0 -0.613833,0.127 -0.232833,0.14816 -0.34925,0.53975 -0.04233,0.14816 -0.04233,0.26458 0,0.80433 1.566333,1.16417 0.783167,0.17991 1.132417,0.1905 0.306916,0.0106 0.8255,-0.0317 l 0.836083,-0.0635 q 0.179917,-0.0106 0.994833,-0.23284 0.455084,-0.127 0.92075,-0.73025 0.4445,-0.5715 0.529167,-1.05833 0.0635,-0.37042 0.0635,-0.6985 0,-0.94192 -0.518583,-1.53458 -0.28575,-0.32809 -0.931334,-0.61384 -0.550333,-0.24341 -1.0795,-0.34925 -0.211666,-0.0423 -1.3335,-0.0529 -0.8255,-0.0106 -1.259416,-0.28575 -0.328084,-0.20109 -0.275167,-0.4445 0,-0.24342 0.05292,-0.508 0.02117,-0.30692 0.465666,-0.51859 0.15875,-0.0741 0.455084,-0.0741 0.518583,0 1.407583,0.254 0.740833,0.21167 1.17475,0.21167 0.391583,0 0.518583,-0.17992 0.254,-0.35983 0.296334,-1.016 0.03175,-0.635 -0.359834,-0.81492 -1.36525,-0.62441 -2.741083,-0.62441 -1.2065,0 -1.989667,0.46566 z" />
        <path
           inkscape:connector-curvature="0"
           id="path4559"
           style="font-style:normal;font-variant:normal;font-weight:normal;font-stretch:normal;font-family:Vanilla;-inkscape-font-specification:Vanilla;fill:none;stroke:#0a0000;stroke-width:1.32291663;stroke-miterlimit:4;stroke-dasharray:none;stroke-opacity:1"
           d="m 54.32419,232.71169 q -0.243417,-0.14817 -0.867834,-0.24342 -0.201083,-0.0317 -0.391583,-0.0317 -1.280583,0 -2.518833,1.53458 0.09525,-2.36008 0.116416,-3.34433 0.01058,-0.4445 0,-0.83608 l -0.01058,-0.64559 q 0,-0.52916 -0.60325,-0.77258 -0.243417,-0.0953 -0.4445,-0.0953 -0.359833,0 -0.6985,0.23283 -0.550333,0.381 -0.53975,1.4605 0.01058,0.8255 0.116417,2.11667 l 0.169333,2.10608 q 0.08467,0.98425 0.105833,1.16417 0,0.24342 0.03175,0.64558 0.04233,0.47625 0,1.23825 -0.02117,0.46567 0.41275,0.70909 0.34925,0.1905 0.85725,0.1905 0.899584,0 1.153584,-1.143 0.179916,-0.81492 0.3175,-1.23825 0.275166,-0.83609 0.624416,-1.09009 0.22225,-0.16933 0.66675,-0.22225 0.41275,-0.0529 0.709084,0.91017 0.08467,0.26458 0.518583,2.11667 0.201083,0.5715 0.762,0.5715 1.100667,0 1.100667,-1.34409 0,-0.29633 -0.04233,-0.68791 -0.09525,-0.91017 -0.455083,-1.82034 -0.465667,-1.18533 -1.090083,-1.48166 z" />
        <path
           inkscape:connector-curvature="0"
           id="path4561"
           style="font-style:normal;font-variant:normal;font-weight:normal;font-stretch:normal;font-family:Vanilla;-inkscape-font-specification:Vanilla;fill:none;stroke:#0a0000;stroke-width:1.32291663;stroke-miterlimit:4;stroke-dasharray:none;stroke-opacity:1"
           d="m 60.454419,229.0816 q -1.9685,-0.0953 -2.772833,0.77259 -0.455083,0.48683 -0.66675,1.19591 -0.116416,0.37042 -0.264583,1.36525 -0.03175,0.21167 -0.03175,0.52917 0,0.68792 0.169333,1.78858 0.179917,1.19592 0.41275,1.72509 0.306917,0.6985 1.026583,1.143 0.635,0.381 1.756834,0.4445 1.037166,0.0529 1.883833,-0.381 0.899583,-0.45509 1.322917,-1.34409 0.433916,-0.87841 0.433916,-1.86266 0,-0.26459 -0.02117,-0.47625 -0.169334,-1.651 -0.243417,-2.05317 -0.41275,-2.24367 -1.725083,-2.67758 -0.381,-0.127 -1.280584,-0.16934 z m 1.153584,5.23875 q 0.02117,0.28575 0.02117,0.40217 0,0.86783 -0.550333,1.22767 -0.433917,0.28575 -0.878417,0.28575 -0.254,0 -0.497416,-0.0952 -0.687917,-0.26459 -0.762,-1.41817 -0.05292,-0.80433 -0.07408,-1.98967 -0.01058,-0.92075 0.254,-1.31233 0.3175,-0.46567 1.195917,-0.45508 0.656167,0.0106 0.9525,0.75141 0.169333,0.4445 0.243417,1.30175 0,0 0.09525,1.30175 z" />
        <path
           inkscape:connector-curvature="0"
           id="path4563"
           style="font-style:normal;font-variant:normal;font-weight:normal;font-stretch:normal;font-family:Vanilla;-inkscape-font-specification:Vanilla;fill:none;stroke:#0a0000;stroke-width:1.32291663;stroke-miterlimit:4;stroke-dasharray:none;stroke-opacity:1"
           d="m 66.995416,231.3041 q 0.116417,-0.89958 -0.07408,-1.82033 -0.15875,-0.74083 -1.058333,-0.74083 -0.179917,0 -0.402167,0.0317 -0.296333,-0.0212 -0.677333,0.39158 -0.254,0.27517 -0.254,0.99483 0,0.33867 0.0635,0.81492 0.116416,0.85725 0.243416,2.56117 0.127,1.70391 0.232834,2.52941 0.105833,0.81492 0.22225,1.0795 0.201083,0.43392 0.762,0.70909 0.105833,0.0529 0.254,0.0529 0.264583,0 0.592666,-0.22225 0.402167,-0.27516 0.402167,-1.40758 0,-0.28575 -0.04233,-0.84667 -0.03175,-0.5715 -0.03175,-0.85725 0,-1.02658 0.264583,-1.35466 0.687917,-0.85725 2.338916,-0.99484 0.740834,-0.0529 0.66675,-0.96308 -0.0635,-0.89958 -1.185333,-0.98425 -1.121833,-0.0847 -2.31775,1.02658 z" />
        <path
           inkscape:connector-curvature="0"
           id="path4565"
           style="font-style:normal;font-variant:normal;font-weight:normal;font-stretch:normal;font-family:Vanilla;-inkscape-font-specification:Vanilla;fill:none;stroke:#0a0000;stroke-width:1.32291663;stroke-miterlimit:4;stroke-dasharray:none;stroke-opacity:1"
           d="m 77.495075,232.22485 q -0.15875,-0.0212 -0.5715,-0.0635 -0.306917,-0.0317 -0.560917,0 -0.0635,0.0106 -0.148166,0.0106 -0.15875,0 -0.41275,-0.0423 l 0.07408,-1.524 q 0.02117,-0.40216 0.0635,-1.10066 0.09525,-1.50284 -0.98425,-1.60867 -0.772583,-0.0741 -1.026583,0.48683 -0.15875,0.34925 -0.148167,1.23825 0.01058,0.67734 0.03175,2.54 -0.8255,0.0741 -1.312333,0.0317 -0.5715,-0.0529 -1.090084,0.3175 -0.338666,0.24342 -0.338666,0.65617 0,0.22225 0.07408,0.45508 0.306917,0.93134 1.439333,0.93134 0.560917,0 1.344084,-0.1905 0.02117,2.02141 0.05292,2.65641 0.03175,0.5715 0.08467,0.71967 0.127,0.32808 0.529167,0.43392 0.116416,0.0318 0.28575,0.0318 0.423333,0 0.677333,-0.32809 0.232833,-0.29633 0.232833,-0.73025 0,-0.43391 0.04233,-1.49225 0.03175,-0.89958 0.03175,-1.50283 0.709083,0.0423 1.185333,0.0423 0.740833,0 0.899583,-0.0953 0.359834,-0.20108 0.47625,-0.33866 0.169334,-0.20109 0.179917,-0.56092 0.01058,-0.43392 -0.211667,-0.59267 -0.560916,-0.381 -0.899583,-0.381 z" />
        <path
           inkscape:connector-curvature="0"
           id="path4567"
           style="font-style:normal;font-variant:normal;font-weight:normal;font-stretch:normal;font-family:Vanilla;-inkscape-font-specification:Vanilla;fill:none;stroke:#0a0000;stroke-width:1.32291663;stroke-miterlimit:4;stroke-dasharray:none;stroke-opacity:1"
           d="m 84.224587,233.51602 q 0.05292,-0.22225 0.05292,-0.381 0,-0.27517 -0.148166,-0.46567 -0.22225,-0.28575 -1.481667,-0.3175 -1.3335,-0.0318 -1.926167,0.0741 -1.386416,0.24341 -1.386416,1.18533 0,0.64558 0.931333,0.74083 1.026583,0.10584 1.703917,0.0212 0.381,-0.0529 1.397,-0.17992 0.719666,-0.0847 0.85725,-0.67733 z" />
        <path
           inkscape:connector-curvature="0"
           id="path4569"
           style="font-style:normal;font-variant:normal;font-weight:normal;font-stretch:normal;font-family:Vanilla;-inkscape-font-specification:Vanilla;fill:none;stroke:#0a0000;stroke-width:1.32291663;stroke-miterlimit:4;stroke-dasharray:none;stroke-opacity:1"
           d="m 89.083164,229.0816 q -1.9685,-0.0953 -2.772834,0.77259 -0.455083,0.48683 -0.66675,1.19591 -0.116416,0.37042 -0.264583,1.36525 -0.03175,0.21167 -0.03175,0.52917 0,0.68792 0.169333,1.78858 0.179917,1.19592 0.41275,1.72509 0.306917,0.6985 1.026584,1.143 0.635,0.381 1.756833,0.4445 1.037167,0.0529 1.883833,-0.381 0.899583,-0.45509 1.322917,-1.34409 0.433916,-0.87841 0.433916,-1.86266 0,-0.26459 -0.02117,-0.47625 -0.169334,-1.651 -0.243417,-2.05317 -0.41275,-2.24367 -1.725083,-2.67758 -0.381,-0.127 -1.280583,-0.16934 z m 1.153583,5.23875 q 0.02117,0.28575 0.02117,0.40217 0,0.86783 -0.550334,1.22767 -0.433916,0.28575 -0.878416,0.28575 -0.254,0 -0.497417,-0.0952 -0.687917,-0.26459 -0.762,-1.41817 -0.05292,-0.80433 -0.07408,-1.98967 -0.01058,-0.92075 0.254,-1.31233 0.3175,-0.46567 1.195916,-0.45508 0.656167,0.0106 0.9525,0.75141 0.169334,0.4445 0.243417,1.30175 0,0 0.09525,1.30175 z" />
        <path
           inkscape:connector-curvature="0"
           id="path4571"
           style="font-style:normal;font-variant:normal;font-weight:normal;font-stretch:normal;font-family:Vanilla;-inkscape-font-specification:Vanilla;fill:none;stroke:#0a0000;stroke-width:1.32291663;stroke-miterlimit:4;stroke-dasharray:none;stroke-opacity:1"
           d="m 98.280575,233.51602 q 0.05292,-0.22225 0.05292,-0.381 0,-0.27517 -0.148167,-0.46567 -0.22225,-0.28575 -1.481667,-0.3175 -1.3335,-0.0318 -1.926166,0.0741 -1.386417,0.24341 -1.386417,1.18533 0,0.64558 0.931333,0.74083 1.026584,0.10584 1.703917,0.0212 0.381,-0.0529 1.397,-0.17992 0.719667,-0.0847 0.85725,-0.67733 z" />
        <path
           inkscape:connector-curvature="0"
           id="path4573"
           style="font-style:normal;font-variant:normal;font-weight:normal;font-stretch:normal;font-family:Vanilla;-inkscape-font-specification:Vanilla;fill:none;stroke:#0a0000;stroke-width:1.32291663;stroke-miterlimit:4;stroke-dasharray:none;stroke-opacity:1"
           d="m 108.54724,229.67427 q -0.51859,-0.254 -1.22767,-0.24342 -0.64558,0.0106 -1.18533,0.4445 -0.49742,0.39159 -0.77259,1.02659 -0.254,-0.91017 -1.016,-1.21709 -0.55033,-0.22225 -0.97366,-0.22225 -0.32809,0 -0.59267,0.11642 -0.65617,0.28575 -0.94192,0.67733 0.0318,-0.0635 0.0318,-0.26458 0,-0.52917 -0.26458,-0.98425 -0.30692,-0.53975 -0.80433,-0.53975 -0.11642,0 -0.17992,0.0106 -0.687918,0.10584 -0.963085,0.508 -0.179916,0.26459 -0.179916,0.86784 0,0.29633 0.04233,0.64558 0.402167,3.3655 0.28575,5.19642 -0.01058,0.16933 -0.01058,0.33866 0,1.48167 0.963081,1.88384 0.17992,0.0741 0.33867,0.0741 0.52917,0 0.75142,-0.61383 0.16933,-0.4445 0.127,-1.04775 -0.0635,-0.98425 -0.0318,-2.04259 0.0423,-1.2065 0.15875,-1.69333 0.26458,-1.0795 1.02658,-1.0795 0.59267,0 0.83608,0.80433 0.16934,0.56092 0.14817,1.29117 -0.0318,1.09008 -0.0847,2.05317 -0.0423,0.762 0.23284,1.34408 0.33866,0.73025 1.03716,0.73025 0.15875,0 0.26459,-0.0212 0.66675,-0.127 0.75141,-0.86783 0.14817,-1.25942 0.16934,-3.05858 0.0106,-1.27 0.381,-1.82034 0.20108,-0.29633 0.381,-0.29633 0.1905,0 0.37041,0.29633 0.381,0.60325 0.34925,1.93675 -0.0317,1.43934 -0.0741,2.30717 -0.0423,0.94192 0.55033,1.27 0.30692,0.16933 0.59267,0.16933 0.26458,0 0.508,-0.13758 0.4445,-0.254 0.4445,-1.60867 0,-0.254 -0.0106,-0.47625 -0.0952,-2.02141 -0.13758,-2.48708 -0.11641,-1.28058 -0.26458,-1.82033 -0.30692,-1.10067 -1.02658,-1.44992 z" />
        <path
           inkscape:connector-curvature="0"
           id="path4575"
           style="font-style:normal;font-variant:normal;font-weight:normal;font-stretch:normal;font-family:Vanilla;-inkscape-font-specification:Vanilla;fill:none;stroke:#0a0000;stroke-width:1.32291663;stroke-miterlimit:4;stroke-dasharray:none;stroke-opacity:1"
           d="m 113.35041,228.90169 q -0.11642,0.0423 -0.37042,0.15875 -0.0529,0.0317 -0.14816,0.0635 -0.37042,0.14816 -0.56092,0.762 -0.0529,0.17991 -0.0529,0.30691 0,0.43392 0.381,0.762 0.381,0.32809 0.81492,0.32809 0.13758,0 0.23283,-0.0212 0.59267,-0.127 0.9525,-0.0529 0.37042,0.0741 0.635,0.5715 0.15875,0.29634 0.15875,0.75142 0,0.28575 -0.0635,0.66675 0,0.0212 -0.0318,0.23283 -0.11641,-0.0847 -0.29633,-0.22225 -0.65617,-0.39158 -1.64042,-0.39158 -0.23283,0 -0.381,0.0106 -0.99483,0.0741 -1.68275,0.74084 -0.68791,0.66675 -0.68791,1.651 0,1.47108 1.23825,2.32833 0.42333,0.29633 1.09008,0.32808 0.73025,0.0423 1.4605,-0.21166 0.83608,-0.28575 1.2065,-0.80434 l 0.10583,-0.21166 q 0.32809,0.762 0.77259,0.83608 0.127,0.0212 0.24341,0.0212 0.48684,0 0.74084,-0.41275 0.0529,-0.0847 0.0529,-0.24342 0,-0.34925 -0.30691,-0.83608 -0.26459,-0.42334 -0.26459,-1.50284 0,-0.51858 0.0635,-1.16416 0.20109,-2.07434 0.11642,-2.6035 -0.0741,-0.46567 -0.39158,-0.97367 -0.22225,-0.37042 -0.8255,-0.67733 -0.59267,-0.3175 -1.02659,-0.3175 h -0.71966 q -0.508,-0.0106 -0.81492,0.127 z m -0.30692,7.32366 q -0.21166,0 -0.39158,-0.10583 -0.37042,-0.21167 -0.30692,-0.80433 0.0635,-0.67734 0.93134,-0.67734 0.508,0 0.6985,0.53975 0.0635,0.17992 0.0635,0.30692 0,0.33867 -0.33867,0.55033 -0.29633,0.1905 -0.65617,0.1905 z" />
        <path
           inkscape:connector-curvature="0"
           id="path4577"
           style="font-style:normal;font-variant:normal;font-weight:normal;font-stretch:normal;font-family:Vanilla;-inkscape-font-specification:Vanilla;fill:none;stroke:#0a0000;stroke-width:1.32291663;stroke-miterlimit:4;stroke-dasharray:none;stroke-opacity:1"
           d="m 125.05806,232.22485 q -0.15875,-0.0212 -0.5715,-0.0635 -0.30691,-0.0317 -0.56091,0 -0.0635,0.0106 -0.14817,0.0106 -0.15875,0 -0.41275,-0.0423 l 0.0741,-1.524 q 0.0212,-0.40216 0.0635,-1.10066 0.0953,-1.50284 -0.98425,-1.60867 -0.77258,-0.0741 -1.02658,0.48683 -0.15875,0.34925 -0.14817,1.23825 0.0106,0.67734 0.0318,2.54 -0.8255,0.0741 -1.31233,0.0317 -0.5715,-0.0529 -1.09008,0.3175 -0.33867,0.24342 -0.33867,0.65617 0,0.22225 0.0741,0.45508 0.30692,0.93134 1.43934,0.93134 0.56091,0 1.34408,-0.1905 0.0212,2.02141 0.0529,2.65641 0.0318,0.5715 0.0847,0.71967 0.127,0.32808 0.52917,0.43392 0.11642,0.0318 0.28575,0.0318 0.42333,0 0.67733,-0.32809 0.23284,-0.29633 0.23284,-0.73025 0,-0.43391 0.0423,-1.49225 0.0318,-0.89958 0.0318,-1.50283 0.70908,0.0423 1.18533,0.0423 0.74084,0 0.89959,-0.0953 0.35983,-0.20108 0.47625,-0.33866 0.16933,-0.20109 0.17991,-0.56092 0.0106,-0.43392 -0.21166,-0.59267 -0.56092,-0.381 -0.89959,-0.381 z" />
        <path
           inkscape:connector-curvature="0"
           id="path4579"
           style="font-style:normal;font-variant:normal;font-weight:normal;font-stretch:normal;font-family:Vanilla;-inkscape-font-specification:Vanilla;fill:none;stroke:#0a0000;stroke-width:1.32291663;stroke-miterlimit:4;stroke-dasharray:none;stroke-opacity:1"
           d="m 128.23158,231.10302 q 0.66675,0.0212 1.143,-0.65617 0.16933,-0.24341 0.16933,-0.64558 0,-0.26458 -0.0635,-0.59267 -0.16933,-0.87841 -0.93133,-0.99483 -0.20109,-0.0318 -0.45509,-0.0318 -0.64558,0 -0.96308,0.3175 -0.30692,0.3175 -0.41275,0.97367 -0.0423,0.254 -0.0423,0.42333 0,0.43392 0.22225,0.68792 0.1905,0.21166 0.62441,0.40216 0.23284,0.10584 0.70909,0.11642 z m -0.0106,1.43933 q -0.58208,0.127 -0.75141,1.35467 -0.0317,0.22225 -0.10584,1.75683 -0.0529,1.00542 0,1.29117 0.11642,0.75142 0.71967,0.94192 0.26458,0.0847 0.51858,0.0847 0.26459,0 0.49742,-0.10583 0.43392,-0.1905 0.45508,-0.75142 0.0106,-0.33866 -0.0741,-1.016 -0.0847,-0.66675 -0.0741,-1.00541 0.0423,-0.8255 -0.0529,-1.41817 -0.15875,-1.016 -0.61383,-1.11125 -0.26459,-0.0423 -0.40217,-0.0423 -0.0952,0 -0.11642,0.0212 z" />
        <path
           inkscape:connector-curvature="0"
           id="path4581"
           style="font-style:normal;font-variant:normal;font-weight:normal;font-stretch:normal;font-family:Vanilla;-inkscape-font-specification:Vanilla;fill:none;stroke:#0a0000;stroke-width:1.32291663;stroke-miterlimit:4;stroke-dasharray:none;stroke-opacity:1"
           d="m 136.57719,230.53152 q -0.21166,-1.73567 -2.96333,-1.79917 -2.0955,-0.0529 -2.71992,1.00542 -0.35983,0.61383 -0.51858,2.159 -0.11642,1.21708 -0.0635,2.26483 0.13758,2.70934 1.74625,3.37609 1.13242,0.46566 2.08492,0.43391 0.42333,-0.0106 1.41816,-0.26458 0.89959,-0.41275 0.89959,-1.0795 0,-0.254 -0.0952,-0.49742 -0.28575,-0.73025 -1.17475,-0.73025 -0.28575,0 -0.83609,0.13759 -0.53975,0.127 -0.8255,0.127 -0.98425,0 -1.29116,-0.99484 -0.24342,-0.78316 -0.24342,-1.397 0,-0.45508 0.13758,-0.84666 0.48684,-1.40759 1.85209,-1.40759 0.59266,0 1.36525,0.254 0.39158,0.127 0.635,0.127 0.60325,0 0.60325,-0.65616 0,-0.127 -0.0106,-0.21167 z" />
      </g>
      <text
         xml:space="preserve"
         style="font-style:normal;font-variant:normal;font-weight:normal;font-stretch:normal;font-size:10.58333302px;line-height:1.25;font-family:Vanilla;-inkscape-font-specification:Vanilla;letter-spacing:0px;word-spacing:0px;fill:#ffffff;fill-opacity:1;stroke:none;stroke-width:0.26458332"
         x="40.759804"
         y="224.35432"
         id="text16"><tspan
           sodipodi:role="line"
           id="tspan14"
           x="40.759804"
           y="224.35432"
           style="font-style:normal;font-variant:normal;font-weight:normal;font-stretch:normal;font-family:Vanilla;-inkscape-font-specification:Vanilla;fill:#ffffff;stroke-width:0.26458332">short-o-matic</tspan></text>
    </g>
  </g>
  <g
     inkscape:groupmode="layer"
     id="layer6"
     inkscape:label="box">
    <rect
       style="fill:none;fill-opacity:1;stroke:none;stroke-width:0.91992003;stroke-miterlimit:4;stroke-dasharray:none;stroke-opacity:1"
       id="rect5000"
       width="134.70435"
       height="70.024368"
       x="21.514345"
       y="13.154655"
       inkscape:export-xdpi="75.085289"
       inkscape:export-ydpi="75.085289"
       inkscape:export-filename="C:\Users\jisantosf\development\projects\Shortener\linkshortenerparent\link-shortener-ui\src\assets\short-o-matic-logo.png" />
  </g>
</svg>
